<?xml version="1.0" encoding="utf-8"?>
<!-- Generator: Adobe Illustrator 21.1.0, SVG Export Plug-In . SVG Version: 6.00 Build 0)  -->
<svg version="1.1" id="Layer_1" xmlns="http://www.w3.org/2000/svg" xmlns:xlink="http://www.w3.org/1999/xlink" x="0px" y="0px"
	 viewBox="0 0 100 125" style="enable-background:new 0 0 100 125;" xml:space="preserve">
<g>
	<path d="M33.4,64.2c-1.5-1.6,1-3.8,2.5-2.2l9.2,10.2l22-27.8c1.3-1.7,4,0.4,2.6,2.1L46.3,76.1c-0.7,0.6-1.7,0.6-2.3-0.1
		C43.9,75.9,33.4,64.2,33.4,64.2z M25.1,22.5c-1.8,1.2-3.7-1.5-1.9-2.8c8-5.4,17.1-8.1,26.7-8.1c26.7,0,48.3,21.6,48.3,48.3
		S76.7,108.3,50,108.3S1.7,86.7,1.7,60c0-9.6,2.9-19,8.2-27c1.2-1.8,4,0,2.8,1.9C7.6,42.3,5,51,5,60c0,24.8,20.1,45,45,45
		s45-20.2,45-45S74.8,15,50,15C41,15,32.5,17.6,25.1,22.5z"/>
</g>
</svg>
