<?xml version="1.0" encoding="utf-8"?>
<!-- Generator: Adobe Illustrator 21.1.0, SVG Export Plug-In . SVG Version: 6.00 Build 0)  -->
<svg version="1.1" id="Layer_1" xmlns="http://www.w3.org/2000/svg" xmlns:xlink="http://www.w3.org/1999/xlink" x="0px" y="0px"
	 viewBox="0 0 100 125" style="enable-background:new 0 0 100 125;" xml:space="preserve">
<style type="text/css">
	.st0{fill:#231F20;}
</style>
<g>
	<g>
		<path class="st0" d="M67.7,103.8H22.6c-8.5,0-15.4-6.9-15.4-15.4V43.3c0-8.5,6.9-15.4,15.4-15.4h35.1c1.4,0,2.5,1.1,2.5,2.5
			c0,1.4-1.1,2.5-2.5,2.5H22.6c-5.7,0-10.4,4.6-10.4,10.4v45.1c0,5.7,4.6,10.4,10.4,10.4h45.1c5.7,0,10.4-4.6,10.4-10.4V53.3
			c0-1.4,1.1-2.5,2.5-2.5S83,52,83,53.3v35.1C83,96.9,76.1,103.8,67.7,103.8z"/>
	</g>
	<g>
		<path class="st0" d="M25.2,88.9c-0.8,0-1.5-0.3-2.1-0.9c-0.9-0.9-1.2-2.3-0.6-3.4l7.2-15.5c0.1-0.3,0.4-0.6,0.6-0.9L75.6,23
			c1.2-1.2,3.1-1.2,4.2,0l8,8c0.6,0.6,0.9,1.3,0.9,2.1c0,0.8-0.3,1.6-0.9,2.1L42.6,80.6c-0.2,0.2-0.5,0.4-0.8,0.6l-15.2,7.4
			C26.1,88.8,25.7,88.9,25.2,88.9z M34.9,72.2l-3.4,7.3l7.2-3.5l42.8-42.8l-3.8-3.8L34.9,72.2z"/>
		<path class="st0" d="M85.4,36.5c-0.8,0-1.5-0.3-2.1-0.9c-1.2-1.2-1.2-3.1,0-4.2l5.9-5.9c1-1,1-2.7,0-3.7c-1.1-1.1-2.8-1.1-3.8-0.1
			l-5.9,5.9c-1.2,1.2-3.1,1.2-4.2,0c-1.2-1.2-1.2-3.1,0-4.2l5.9-5.9c3.4-3.4,8.8-3.4,12.2,0c3.4,3.4,3.4,8.9,0.1,12.3l-5.9,5.9
			C87,36.2,86.2,36.5,85.4,36.5z"/>
	</g>
</g>
</svg>
