<?xml version="1.0" encoding="utf-8"?>
<!-- Generator: Adobe Illustrator 21.0.0, SVG Export Plug-In . SVG Version: 6.00 Build 0)  -->
<svg version="1.1"
	 id="Layer_1" xmlns:cc="http://creativecommons.org/ns#" xmlns:dc="http://purl.org/dc/elements/1.1/" xmlns:inkscape="http://www.inkscape.org/namespaces/inkscape" xmlns:rdf="http://www.w3.org/1999/02/22-rdf-syntax-ns#" xmlns:sodipodi="http://sodipodi.sourceforge.net/DTD/sodipodi-0.dtd" xmlns:svg="http://www.w3.org/2000/svg"
	 xmlns="http://www.w3.org/2000/svg" xmlns:xlink="http://www.w3.org/1999/xlink" x="0px" y="0px" viewBox="0 0 32 32"
	 style="enable-background:new 0 0 32 32;" xml:space="preserve">
<g transform="translate(0,-1020.3622)">
	<path d="M16,1020.4c-8.8,0-16,7.2-16,16s7.2,16,16,16c8.8,0,16-7.2,16-16S24.8,1020.4,16,1020.4z M16,1021.4c8.3,0,15,6.7,15,15
		s-6.7,15-15,15c-8.3,0-15-6.7-15-15S7.7,1021.4,16,1021.4z M9,1029C9,1029,8.9,1029,9,1029c-0.3,0.1-0.4,0.4-0.4,0.7
		c0,0.1,0.1,0.2,0.1,0.2l6.5,6.5l-6.5,6.5c-0.2,0.2-0.2,0.5,0,0.7c0.2,0.2,0.5,0.2,0.7,0l6.5-6.5l6.5,6.5c0.2,0.2,0.5,0.2,0.7,0
		s0.2-0.5,0-0.7c0,0,0,0,0,0l-6.5-6.5l6.5-6.5c0.2-0.2,0.2-0.5,0.1-0.7c-0.2-0.2-0.5-0.2-0.7-0.1c0,0-0.1,0-0.1,0.1l-6.5,6.5
		l-6.5-6.5C9.4,1029,9.2,1028.9,9,1029z"/>
</g>
</svg>
