<?xml version="1.0" encoding="utf-8"?>
<!-- Generator: Adobe Illustrator 21.1.0, SVG Export Plug-In . SVG Version: 6.00 Build 0)  -->
<svg version="1.1"
	 id="Layer_1" xmlns:cc="http://creativecommons.org/ns#" xmlns:dc="http://purl.org/dc/elements/1.1/" xmlns:inkscape="http://www.inkscape.org/namespaces/inkscape" xmlns:rdf="http://www.w3.org/1999/02/22-rdf-syntax-ns#" xmlns:sodipodi="http://sodipodi.sourceforge.net/DTD/sodipodi-0.dtd" xmlns:svg="http://www.w3.org/2000/svg"
	 xmlns="http://www.w3.org/2000/svg" xmlns:xlink="http://www.w3.org/1999/xlink" x="0px" y="0px" viewBox="0 0 100 125"
	 style="enable-background:new 0 0 100 125;" xml:space="preserve">
<path d="M91.7,30.7H77.8c1-1.5,1.5-3.3,1.5-5.1c0-5.2-4.2-9.5-9.5-9.5c-5.5,0-9.5,2.6-12.6,5.6c-2.6,2.5-4.8,5.2-7.2,7.3
	c-2.4-2.1-4.6-4.8-7.2-7.3c-3.1-3-7.1-5.6-12.6-5.6c-5.3,0-9.5,4.3-9.5,9.5c0,1.9,0.6,3.7,1.5,5.1H8.3c-0.1,0-0.1,0-0.2,0
	c-1.2,0.1-2,1.1-2,2.3v20.3c0,1.2,1,2.3,2.3,2.3h4.5v46.3c0,1.2,1,2.3,2.3,2.3H85c1.2,0,2.3-1,2.3-2.3V55.5h4.5c1.2,0,2.3-1,2.3-2.3
	V32.9C94,31.7,93,30.7,91.7,30.7z M30.2,20.5c4.2,0,6.8,1.7,9.5,4.3c1.8,1.7,3.5,3.8,5.6,5.8H29.6c-0.2-0.1-0.4-0.2-0.7-0.2
	c-2.2-0.6-3.8-2.6-3.8-4.9C25.2,22.7,27.3,20.5,30.2,20.5z M47.7,99.5H17.3v-44h30.5V99.5z M47.7,51H10.5V35.2h37.2V51z M60.3,24.8
	c2.7-2.6,5.3-4.3,9.5-4.3c2.9,0,5,2.2,5,5c0,2.3-1.6,4.3-3.8,4.9c-0.2,0-0.5,0.1-0.7,0.2H54.8C56.8,28.7,58.5,26.6,60.3,24.8z
	 M82.7,99.5H52.3v-44h30.5V99.5z M89.5,51H52.3V35.2h37.2V51z"/>
</svg>
