<?xml version="1.0" encoding="utf-8"?>
<!-- Generator: Adobe Illustrator 21.0.0, SVG Export Plug-In . SVG Version: 6.00 Build 0)  -->
<svg version="1.1" id="Layer_1" xmlns="http://www.w3.org/2000/svg" xmlns:xlink="http://www.w3.org/1999/xlink" x="0px" y="0px"
	 viewBox="0 0 1200 1200" style="enable-background:new 0 0 1200 1200;" xml:space="preserve">
<g>
	<path d="M376.7,45.6L157.5,264.8v889.4h885V45.6H376.7z M359.3,146.9v119.3H240L359.3,146.9z M983.1,1094.8H216.8V325.5h201.9
		V104.9h564.5V1094.8z"/>
	<path d="M393.8,548.1h-75.4v195.8h40.3v-54h35.1c46.5,0,75.6-27.1,75.6-70.8C469.4,575.2,440.3,548.1,393.8,548.1z M391.5,653
		h-32.8v-68h32.8c24.6,0,37.1,12.6,37.1,34.1C428.6,640.4,416.2,653,391.5,653z"/>
	<path d="M698.2,646c0-59.3-39.1-97.9-96-97.9H523v195.8h79.1C659.1,743.9,698.2,705.3,698.2,646z M563.3,706.7V585.3h36.8
		c34.6,0,57.2,23.2,57.2,60.7c0,37.5-22.6,60.7-57.2,60.7H563.3z"/>
	<polygon points="793.8,672.6 874.4,672.6 874.4,636.2 793.8,636.2 793.8,584.4 885.1,584.4 885.1,548.1 753.5,548.1 753.5,743.9 
		793.8,743.9 	"/>
</g>
</svg>
