<?xml version="1.0" encoding="utf-8"?>
<!-- Generator: Adobe Illustrator 21.1.0, SVG Export Plug-In . SVG Version: 6.00 Build 0)  -->
<svg version="1.1" id="Layer_1" xmlns="http://www.w3.org/2000/svg" xmlns:xlink="http://www.w3.org/1999/xlink" x="0px" y="0px"
	 viewBox="0 0 100 125" style="enable-background:new 0 0 100 125;" xml:space="preserve">
<g>
	<path d="M85,50.8c0-12.2,1.2-11.1-6.5-11.1V24.9c0-2.3-1.9-4.2-4.2-4.2H23.7c-2.3,0-4.2,1.9-4.2,4.2v14.8c-7.7,0-6.5-1.1-6.5,11.1
		H6.6c-2.3,0-4.2,1.8-4.2,4.1v25.9c0,2.3,1.9,4.1,4.2,4.1h12.9v12.2c0,2.3,1.9,4.2,4.2,4.2h50.5c2.3,0,4.2-1.9,4.2-4.2V84.9h12.9
		c2.3,0,4.2-1.8,4.2-4.1V54.9C95.5,49.6,88.6,50.8,85,50.8z M78.4,44.1h2.1v6.7h-2.1V44.1z M24,25.2h50v25.6H24V25.2z M17.4,44.1
		h2.1v6.7h-2.1V44.1z M24,96.8l0-20.4h50l0,20.4H24z M91.1,80.5H78.4v-4.3h0c0-1.6-1.6-4.2-4.2-4.2H23.7c-4.9,0-4.2,6.3-4.2,8.4H6.9
		V55.2h84.2V80.5z"/>
	<path d="M77.2,62.5h7.1c2.9,0,2.9-4.4,0-4.4h-7.1C74.3,58,74.3,62.5,77.2,62.5z"/>
</g>
</svg>
