<?xml version="1.0" encoding="utf-8"?>
<!-- Generator: Adobe Illustrator 21.1.0, SVG Export Plug-In . SVG Version: 6.00 Build 0)  -->
<svg version="1.1" id="Layer_1" xmlns="http://www.w3.org/2000/svg" xmlns:xlink="http://www.w3.org/1999/xlink" x="0px" y="0px"
	 viewBox="0 0 1024 1280" style="enable-background:new 0 0 1024 1280;" xml:space="preserve">
<g>
	<path d="M103.4,879L103.4,879l-28.7,0v0.3c-8.6-1.1-15.2-8.3-15.2-17.2v-34.6c0-0.1,0-0.1,0-0.2c0-4.8-3.9-8.7-8.7-8.7
		c-4.8,0-8.7,3.9-8.7,8.7h0v43.5c0,14.4,11.7,26.1,26.1,26.1h31.4v-0.5h3.6c0.1,0,0.1,0,0.2,0c4.8,0,8.7-3.9,8.7-8.7
		C112,882.9,108.1,879,103.4,879z"/>
	<rect x="377" y="600.8" width="17.5" height="78.6"/>
	<path d="M103.4,522.8L103.4,522.8l-28.7,0v0h-6.5c-14.4,0-26.1,11.7-26.1,26.1v43.5h0c0,4.8,3.9,8.7,8.7,8.7c4.8,0,8.7-3.9,8.7-8.7
		c0-0.1,0-0.1,0-0.2v-34.6c0-9.6,7.8-17.4,17.4-17.4h22.8v0h3.6c0.1,0,0.1,0,0.2,0c4.8,0,8.7-3.9,8.7-8.7S108.1,522.8,103.4,522.8z"
		/>
	<rect x="446.7" y="800.8" width="17.4" height="17.7"/>
	<rect x="411.8" y="731.7" width="8.8" height="52"/>
	<rect x="411.8" y="600.8" width="8.8" height="78.6"/>
	<polygon points="377,818.8 394.5,818.8 394.5,818.8 394.5,731.7 377,731.7 	"/>
	<rect x="411.9" y="800.8" width="17.4" height="17.7"/>
	<rect x="568.4" y="600.8" width="8.7" height="78.6"/>
	<rect x="603.1" y="600.8" width="8.8" height="78.6"/>
	<rect x="446.6" y="600.8" width="8.7" height="78.6"/>
	<rect x="629.2" y="600.8" width="17.5" height="78.6"/>
	<rect x="533.5" y="600.8" width="17.5" height="78.6"/>
	<rect x="472.8" y="600.8" width="26.1" height="78.6"/>
	<rect x="594.6" y="800.8" width="17.4" height="17.7"/>
	<path d="M690.6,696.9H333.2c-4.7,0-8.6,3.8-8.6,8.6c0,4.7,3.8,8.6,8.6,8.6h357.3c4.7,0,8.6-3.8,8.6-8.6
		C699.2,700.8,695.3,696.9,690.6,696.9z"/>
	<rect x="603.1" y="731.7" width="8.8" height="52"/>
	<rect x="629.2" y="731.7" width="17.5" height="87.1"/>
	<path d="M980.3,818.5c-4.8,0-8.7,3.9-8.7,8.7c0,0.1,0,0.1,0,0.2V862c0,8.6-6.3,15.8-14.6,17.1v-0.2h-28.7v0c-4.8,0-8.7,3.9-8.7,8.7
		c0,4.8,3.9,8.7,8.7,8.7c0.1,0,0.1,0,0.2,0h11.7v0.5h22.6c14.4,0,26.1-11.7,26.1-26.1v-43.5h0C989,822.4,985.1,818.5,980.3,818.5z"
		/>
	<polygon points="928.3,540.2 928.3,540.2 928.3,540.2 	"/>
	<path d="M962.9,522.8H957v0h-28.7v0c-4.8,0-8.7,3.9-8.7,8.7c0,4.8,3.9,8.7,8.7,8.7c0.1,0,0.1,0,0.2,0h11.7v0h14
		c9.6,0,17.4,7.8,17.4,17.4v34.6c0,0.1,0,0.1,0,0.2c0,4.8,3.9,8.7,8.7,8.7s8.7-3.9,8.7-8.7h0v-43.5
		C989,534.5,977.3,522.8,962.9,522.8z"/>
	<rect x="559.8" y="800.8" width="17.4" height="17.7"/>
	<rect x="472.8" y="731.7" width="26.1" height="52"/>
	<rect x="516.2" y="800.8" width="17.4" height="17.7"/>
	<rect x="568.4" y="731.7" width="8.7" height="52"/>
	<rect x="481.5" y="800.8" width="17.4" height="17.7"/>
	<rect x="533.5" y="731.7" width="17.5" height="52"/>
	<rect x="446.6" y="731.7" width="8.7" height="52"/>
</g>
</svg>
