<?xml version="1.0" encoding="utf-8"?>
<!-- Generator: Adobe Illustrator 21.1.0, SVG Export Plug-In . SVG Version: 6.00 Build 0)  -->
<svg version="1.1" id="Layer_1" xmlns="http://www.w3.org/2000/svg" xmlns:xlink="http://www.w3.org/1999/xlink" x="0px" y="0px"
	 viewBox="0 0 1024 1280" style="enable-background:new 0 0 1024 1280;" xml:space="preserve">
<g>
	<rect x="160.9" y="332.6" width="45.7" height="205.5"/>
	<path d="M47.5,333.3L47.5,333.3c12.5,0,22.7-10.2,22.7-22.7c0-0.2-0.1-0.4-0.1-0.6v-90.3c0-25.2,20.3-45.5,45.5-45.5H175v-0.1h9.3
		c0.2,0,0.4,0.1,0.6,0.1c12.5,0,22.7-10.2,22.7-22.7c0-12.5-10.2-22.8-22.7-22.8v-0.1h-75.1v0.1h-17c-37.7,0-68.3,30.6-68.3,68.3
		v113.6h0.1C24.7,323.1,34.8,333.3,47.5,333.3z"/>
	<path d="M46.5,628.6h934c12.4,0,22.4-10,22.4-22.4c0-12.4-10-22.4-22.4-22.4h-934c-12.4,0-22.4,10-22.4,22.4
		C24.1,618.6,34.1,628.6,46.5,628.6z"/>
	<rect x="661.1" y="674.7" width="22.8" height="135.9"/>
	<rect x="751.9" y="674.7" width="22.9" height="135.9"/>
	<rect x="342.8" y="332.6" width="22.8" height="205.5"/>
	<rect x="411.3" y="332.6" width="68.3" height="205.5"/>
	<rect x="820.1" y="332.6" width="45.7" height="205.5"/>
	<rect x="751.9" y="332.6" width="22.9" height="205.5"/>
	<path d="M843.8,174.1L843.8,174.1c0.2,0,0.4-0.1,0.6-0.1H875v0.1h36.5c25.2,0,45.5,20.3,45.5,45.5v90.3c0,0.2-0.1,0.4-0.1,0.6
		c0,12.5,10.2,22.7,22.7,22.7s22.8-10.2,22.8-22.7h0.1V196.9c0-37.7-30.6-68.3-68.3-68.3h-15.4v-0.1h-75.1v0.1
		c-12.5,0-22.7,10.2-22.7,22.8C821,163.9,831.2,174.1,843.8,174.1z"/>
	<rect x="570.1" y="332.6" width="45.7" height="205.5"/>
	<rect x="661.1" y="332.6" width="22.8" height="205.5"/>
	<polygon points="206.6,902.4 206.6,902.2 206.6,674.7 160.9,674.7 160.9,902.4 	"/>
	<rect x="251.8" y="332.6" width="22.9" height="205.5"/>
	<rect x="729.6" y="855.2" width="45.5" height="46.2"/>
	<rect x="638.7" y="855.2" width="45.5" height="46.2"/>
	<rect x="570.1" y="674.7" width="45.7" height="135.9"/>
	<path d="M979.6,901.5c-12.5,0-22.7,10.2-22.7,22.7c0,0.2,0.1,0.4,0.1,0.6v90.3c0,22.6-16.5,41.2-38.1,44.8v-0.5h-75.1v0.1
		c-12.5,0-22.7,10.2-22.7,22.8c0,12.5,10.2,22.7,22.7,22.7c0.2,0,0.4-0.1,0.6-0.1H875v1.2h59.2c37.7,0,68.3-30.6,68.3-68.3V924.2
		h-0.1C1002.3,911.8,992.1,901.5,979.6,901.5z"/>
	<rect x="524.7" y="855.2" width="45.5" height="46.2"/>
	<path d="M184.9,1059.7v-0.1h-75.1v0.7c-22.4-2.8-39.8-21.7-39.8-44.9V925c0-0.2,0.1-0.4,0.1-0.6c0-12.5-10.2-22.7-22.7-22.7
		c-12.5,0-22.8,10.2-22.8,22.7h-0.1v113.6c0,37.7,30.6,68.3,68.3,68.3H175v-1.2h9.3c0.2,0,0.4,0.1,0.6,0.1
		c12.5,0,22.7-10.2,22.7-22.7C207.6,1069.8,197.5,1059.7,184.9,1059.7z"/>
	<rect x="820.1" y="674.7" width="45.7" height="227.7"/>
	<rect x="342.8" y="674.7" width="22.8" height="135.9"/>
	<rect x="411.3" y="674.7" width="68.3" height="135.9"/>
	<rect x="251.8" y="674.7" width="22.9" height="135.9"/>
	<rect x="252.1" y="855.2" width="45.5" height="46.2"/>
	<rect x="434" y="855.2" width="45.5" height="46.2"/>
	<rect x="343.1" y="855.2" width="45.5" height="46.2"/>
</g>
</svg>
