<?xml version="1.0" encoding="utf-8"?>
<!-- Generator: Adobe Illustrator 21.1.0, SVG Export Plug-In . SVG Version: 6.00 Build 0)  -->
<svg version="1.1" id="Layer_1" xmlns="http://www.w3.org/2000/svg" xmlns:xlink="http://www.w3.org/1999/xlink" x="0px" y="0px"
	 viewBox="0 0 60 62.5" style="enable-background:new 0 0 60 62.5;" xml:space="preserve">
<title>035 - Send</title>
<desc>Created with Sketch.</desc>
<path d="M59.3,8.5c-0.6-0.5-1.3-0.6-2-0.3L6.6,28.6c-0.5,0.2-0.8,0.8-0.6,1.3c0.2,0.5,0.8,0.8,1.3,0.6l48.4-19.5l-24,28.3
	c-0.4,0.4-0.3,1.1,0.1,1.4c0.4,0.4,1.1,0.3,1.4-0.1l24.4-28.7l-3.3,16.3L51.1,50c0,0.3-0.2,0.6-0.5,0.7c-0.3,0.1-0.6,0.2-0.8,0
	l-13.6-5.4l-6.5-2.7c-0.5-0.2-1.1,0-1.3,0.5c0,0.1,0,0.1,0,0.2h0L25,56l-4.7-16.3l24.3-18.1c0.3-0.2,0.5-0.6,0.4-0.9
	c0-0.4-0.3-0.7-0.6-0.8c-0.3-0.1-0.7-0.1-1,0.2L19,38.2L1.4,31.1c-0.5-0.2-1.1,0-1.3,0.6s0,1.1,0.5,1.3l17.7,7.2L23,56.6
	c0.2,0.9,1,1.4,1.9,1.4h0c0.5,0,0.9-0.2,1.3-0.5c0,0,0.1,0,0.1-0.1l9.7-9.9l13,5.1c0.8,0.4,1.8,0.3,2.6-0.1c0.8-0.5,1.4-1.3,1.5-2.2
	l3.3-21.9L60,10.4C60.1,9.7,59.8,8.9,59.3,8.5z M27.8,53.1l2.1-8.1l3.3,1.4l0.9,0.3L27.8,53.1z"/>
</svg>
