<?xml version="1.0" encoding="utf-8"?>
<!-- Generator: Adobe Illustrator 21.1.0, SVG Export Plug-In . SVG Version: 6.00 Build 0)  -->
<svg version="1.1" id="Layer_1" xmlns="http://www.w3.org/2000/svg" xmlns:xlink="http://www.w3.org/1999/xlink" x="0px" y="0px"
	 viewBox="0 0 100 125" style="enable-background:new 0 0 100 125;" xml:space="preserve">
<title>Artboard 1 copy 49</title>
<g>
	<path d="M83.8,23.2L83.8,23.2l-19.7,0V21c0-3.8-3.1-6.9-6.9-6.9h0H42.8c-3.8,0-6.9,3.1-6.9,6.9v2.2H16.2c-1.2,0-2.2,1-2.2,2.2
		c0,1.2,1,2.2,2.2,2.2h3l6.4,78.2c0.1,1.1,1,2,2.2,2h44.3c1.2,0,2.1-0.9,2.2-2l6.4-78.2h3c1.2,0,2.2-1,2.2-2.2
		C86,24.2,85,23.2,83.8,23.2z M40.3,21c0-1.4,1.1-2.5,2.4-2.5h0h14.5c1.4,0,2.4,1.1,2.4,2.5v0v2.2H40.3L40.3,21z M70.1,103.5H29.9
		l-6.3-75.8h52.7L70.1,103.5z"/>
	<path d="M47.8,92.3c0,1.2,1,2.2,2.2,2.2c1.2,0,2.2-1,2.2-2.2V38.8c0-1.2-0.9-2.2-2.2-2.3c0,0,0,0-0.1,0c-1.2,0-2.2,1-2.2,2.2
		c0,0,0,0,0,0.1V92.3z"/>
	<path d="M38.2,94.6c1.2,0,2.2-1,2.2-2.2V38.8c0-1.2-0.9-2.2-2.2-2.3c0,0,0,0-0.1,0c-1.2,0-2.2,1-2.2,2.2v53.6
		C36,93.6,36.9,94.6,38.2,94.6z"/>
	<path d="M61.8,94.6c1.2,0,2.2-1,2.2-2.2V38.8c0-1.2-0.9-2.2-2.2-2.3c0,0,0,0-0.1,0c-1.2,0-2.2,1-2.2,2.2v53.6
		C59.6,93.6,60.6,94.6,61.8,94.6z"/>
</g>
</svg>
