<?xml version="1.0" encoding="utf-8"?>
<!-- Generator: Adobe Illustrator 21.1.0, SVG Export Plug-In . SVG Version: 6.00 Build 0)  -->
<svg version="1.1" id="Layer_1" xmlns="http://www.w3.org/2000/svg" xmlns:xlink="http://www.w3.org/1999/xlink" x="0px" y="0px"
	 viewBox="0 0 48 60" style="enable-background:new 0 0 48 60;" xml:space="preserve">
<path d="M45.1,24.6c-6.5-7.5-13.6-11.4-20.9-11.4c0,0,0,0-0.1,0C13.8,13.2,5.9,21.1,3,24.5c-1.2,1.3-1.2,3.5,0,5
	c6.5,7.5,13.6,11.4,20.9,11.4c0,0,0,0,0.1,0c10.3,0,18.2-7.9,21.1-11.3C46.3,28.1,46.3,25.9,45.1,24.6z M43.3,28
	c-2.7,3.2-9.9,10.4-19.3,10.4c0,0,0,0-0.1,0c-6.5,0-13-3.5-19-10.6c-0.4-0.5-0.4-1.3,0-1.8c2.7-3.2,9.9-10.4,19.3-10.4
	c0,0,0,0,0.1,0c6.5,0,13,3.5,19,10.6C43.6,26.6,43.6,27.5,43.3,28z M24,20.8c-3.4,0-6.2,2.8-6.2,6.2s2.8,6.2,6.2,6.2
	s6.2-2.8,6.2-6.2S27.4,20.8,24,20.8z M24,30.8c-2.1,0-3.8-1.7-3.8-3.8s1.7-3.8,3.8-3.8s3.8,1.7,3.8,3.8S26.1,30.8,24,30.8z"/>
</svg>
